HIERARCHY
ROOT SpineBase
{
  OFFSET 0.000000 0.000000 0.000000
  CHANNELS 6 Xposition Yposition Zposition Zrotation Xrotation Yrotation
  JOINT SpineMid
  {
    OFFSET 0.000000 24.644566 0.000000
    CHANNELS 3 Zrotation Xrotation Yrotation
    JOINT SpineShoulder
    {
      OFFSET -0.037852 18.347432 -0.500276
      CHANNELS 3 Zrotation Xrotation Yrotation
      JOINT Neck
      {
        OFFSET -0.031557 6.102502 -0.408816
        CHANNELS 3 Zrotation Xrotation Yrotation
        JOINT Head
        {
          OFFSET -3.133960 10.817112 1.581856
          CHANNELS 3 Zrotation Xrotation Yrotation
          End Site
          {
            OFFSET 0 0 0
          }
        }
      }
      JOINT ShoulderLeft
      {
        OFFSET -9.782950 -1.781540 1.831678
        CHANNELS 3 Zrotation Xrotation Yrotation
        JOINT ElbowLeft
        {
          OFFSET -2.957020 -23.941021 7.644541
          CHANNELS 3 Zrotation Xrotation Yrotation
          JOINT WristLeft
          {
            OFFSET -1.866266 -18.897813 -1.007611
            CHANNELS 3 Zrotation Xrotation Yrotation
            JOINT HandLeft
            {
              OFFSET -0.560272 -6.655063 -1.518628
              CHANNELS 3 Zrotation Xrotation Yrotation
              JOINT HandTipLeft
              {
                OFFSET -1.077805 -5.558277 -1.866044
                CHANNELS 3 Zrotation Xrotation Yrotation
                End Site
                {
                  OFFSET 0 0 0
                }
              }
              JOINT ThumbLeft
              {
                OFFSET -2.366411 -0.884705 -0.381594
                CHANNELS 3 Zrotation Xrotation Yrotation
                End Site
                {
                  OFFSET 0 0 0
                }
              }
            }
          }
        }
      }
      JOINT ShoulderRight
      {
        OFFSET 10.093482 -1.496358 -6.561498
        CHANNELS 3 Zrotation Xrotation Yrotation
        JOINT ElbowRight
        {
          OFFSET 1.025180 -20.594470 -5.099686
          CHANNELS 3 Zrotation Xrotation Yrotation
          JOINT WristRight
          {
            OFFSET -1.345755 -18.952864 -5.845913
            CHANNELS 3 Zrotation Xrotation Yrotation
            JOINT HandRight
            {
              OFFSET -0.631006 -7.628293 -1.092605
              CHANNELS 3 Zrotation Xrotation Yrotation
              JOINT HandTipRight
              {
                OFFSET -1.729858 -4.863870 -3.354518
                CHANNELS 3 Zrotation Xrotation Yrotation
                End Site
                {
                  OFFSET 0 0 0
                }
              }
              JOINT ThumbRight
              {
                OFFSET -0.404222 -0.821809 -3.236991
                CHANNELS 3 Zrotation Xrotation Yrotation
                End Site
                {
                  OFFSET 0 0 0
                }
              }
            }
          }
        }
      }
    }
  }
  JOINT HipLeft
  {
    OFFSET -4.750028 0.447234 -0.679083
    CHANNELS 3 Zrotation Xrotation Yrotation
    JOINT KneeLeft
    {
      OFFSET 4.933803 -38.385327 2.915881
      CHANNELS 3 Zrotation Xrotation Yrotation
      JOINT AnkleLeft
      {
        OFFSET 7.056572 -33.726319 4.438523
        CHANNELS 3 Zrotation Xrotation Yrotation
        JOINT FootLeft
        {
          OFFSET -0.042403 -6.260362 -2.106548
          CHANNELS 3 Zrotation Xrotation Yrotation
          End Site
          {
            OFFSET 0 0 0
          }
        }
      }
    }
  }
  JOINT HipRight
  {
    OFFSET 4.349417 0.972818 -4.852271
    CHANNELS 3 Zrotation Xrotation Yrotation
    JOINT KneeRight
    {
      OFFSET 6.671884 -38.454924 0.115209
      CHANNELS 3 Zrotation Xrotation Yrotation
      JOINT AnkleRight
      {
        OFFSET 3.923123 -30.213140 3.879194
        CHANNELS 3 Zrotation Xrotation Yrotation
        JOINT FootRight
        {
          OFFSET -4.155931 -4.649072 -1.461340
          CHANNELS 3 Zrotation Xrotation Yrotation
          End Site
          {
            OFFSET 0 0 0
          }
        }
      }
    }
  }
}
MOTION
Frames: 14
Frame Time: 0.033333
17.459525 79.006304 357.216010 0.177384 2.280878 14.874812 0.281341 -0.307015 -14.851607 0.125157 -0.061510 0.038093 0.758724 1.131461 0.639662 0.000000 0.000000 0.000000 -46.622237 16.533949 -11.691464 -6.363564 19.805743 25.914347 16.524925 29.750446 14.396665 5.612731 -22.824712 -1.854270 0.000000 0.000000 0.000000 0.000000 0.000000 0.000000 53.884530 8.616064 -16.685630 118.186210 4.375466 -178.971823 -26.556527 34.171202 78.804764 6.802203 -57.399503 -43.790951 0.000000 0.000000 0.000000 0.000000 0.000000 0.000000 -17.402021 14.605802 -13.023059 0.457769 -6.770606 -2.729213 -10.014657 46.676257 20.771804 0.000000 0.000000 0.000000 4.261959 -1.175958 -14.347779 -0.326946 -10.438258 -0.522166 13.089109 36.102281 -37.472655 0.000000 0.000000 0.000000
15.577923 78.615467 356.101378 0.896777 1.604369 20.505530 0.292801 -0.388272 -20.470886 0.140705 -0.089464 0.067904 1.096445 3.103222 0.721681 0.000000 0.000000 0.000000 -53.059693 9.714148 -14.582000 -10.795058 32.705159 36.301163 17.869491 27.376279 15.717383 14.016949 -18.047453 1.761891 0.000000 0.000000 0.000000 0.000000 0.000000 0.000000 58.900520 19.829948 -24.322258 112.248573 12.507630 -146.024245 -7.715405 35.927000 39.890309 -0.467972 -47.484059 -68.642544 0.000000 0.000000 0.000000 0.000000 0.000000 0.000000 -16.091598 17.096889 -18.390060 -0.199005 -6.102145 -2.623165 -13.243497 45.724097 22.818547 0.000000 0.000000 0.000000 5.179462 -1.455830 -20.009398 -0.882672 -11.078305 -0.341364 7.344447 37.185103 -33.507187 0.000000 0.000000 0.000000
13.368581 78.447361 355.084113 1.850750 0.945206 22.399614 0.205329 -0.369165 -22.346348 0.076439 -0.096495 0.095795 0.005485 6.271551 1.360104 0.000000 0.000000 0.000000 -53.218887 0.827159 -16.610219 -27.342842 46.815526 51.495163 17.504547 21.771845 16.848959 27.358723 -13.119261 7.957407 0.000000 0.000000 0.000000 0.000000 0.000000 0.000000 64.448031 29.711444 -32.708817 106.941704 13.723294 -81.271762 -2.156409 20.735830 30.425506 6.195164 -13.789004 167.646112 0.000000 0.000000 0.000000 0.000000 0.000000 0.000000 -14.970928 17.375837 -20.354889 -1.601988 -5.121508 -2.532018 -13.784368 44.509899 22.708783 0.000000 0.000000 0.000000 6.441114 -1.179536 -21.897287 -1.601351 -11.939125 -0.149395 2.696787 34.417450 -27.590156 0.000000 0.000000 0.000000
11.079701 78.451205 354.257718 3.217212 0.141283 21.774833 0.205068 -0.375204 -21.673612 0.059805 -0.098781 0.147020 -5.750438 11.449196 3.526560 0.000000 0.000000 0.000000 -47.414877 -8.974310 -15.988161 -59.874123 55.955390 75.468695 17.109905 16.331020 18.275996 23.275870 -17.940351 7.493400 0.000000 0.000000 0.000000 0.000000 0.000000 0.000000 69.109372 42.735622 -43.662346 155.502170 51.562295 72.692024 24.026091 14.809588 27.171194 -109.990563 57.500142 -64.984533 0.000000 0.000000 0.000000 0.000000 0.000000 0.000000 -14.564870 16.535229 -19.860715 -3.379332 -3.917132 -2.412579 -15.524971 46.520580 24.058052 0.000000 0.000000 0.000000 7.883840 -0.444522 -21.322653 -3.154291 -12.828448 -0.059952 3.421887 36.276159 -30.162986 0.000000 0.000000 0.000000
8.826639 78.536079 353.500135 4.623303 -0.591845 20.337776 0.135845 -0.358138 -20.171963 0.001131 -0.106395 0.194871 -11.564101 16.456870 6.204514 0.000000 0.000000 0.000000 -35.716573 -17.100307 -11.570677 -91.322566 58.227517 93.855296 14.590577 15.726802 18.700400 25.431833 -20.172723 9.805667 0.000000 0.000000 0.000000 0.000000 0.000000 0.000000 75.456548 60.948810 -59.873828 -81.791766 75.877215 -9.911906 15.122478 -0.455098 1.021582 34.398069 -7.524880 18.680273 0.000000 0.000000 0.000000 0.000000 0.000000 0.000000 -14.385847 15.179187 -18.591284 -4.438824 -2.969644 -2.177898 -21.602319 41.821655 25.972696 0.000000 0.000000 0.000000 8.445002 0.090383 -20.029128 -3.738941 -13.047102 0.214079 4.641330 34.697787 -30.479583 0.000000 0.000000 0.000000
6.614539 78.580526 352.796626 5.879785 -1.113622 17.489697 0.015027 -0.301048 -17.258618 -0.084014 -0.098704 0.233176 -14.654620 20.402042 8.149192 0.000000 0.000000 0.000000 -21.201079 -26.865986 -4.671698 -119.395394 57.997165 109.150283 6.571113 18.353194 16.540606 32.150639 -24.809795 15.021632 0.000000 0.000000 0.000000 0.000000 0.000000 0.000000 93.300856 83.997127 -91.384795 -50.189336 42.044117 -27.318665 12.322556 6.047761 0.115605 25.674883 -43.730392 10.651096 0.000000 0.000000 0.000000 0.000000 0.000000 0.000000 -14.345852 12.926358 -16.016471 -5.814155 -1.532804 -1.824686 -22.874897 40.468596 25.700789 0.000000 0.000000 0.000000 8.435230 0.358868 -17.339566 -3.454103 -12.575884 0.657326 12.469587 26.069882 -30.271942 0.000000 0.000000 0.000000
4.562484 78.539397 352.130005 6.712267 -1.319322 15.241906 -0.166759 -0.281899 -14.968082 -0.177310 -0.110413 0.254178 -13.781961 22.993001 8.479310 0.000000 0.000000 0.000000 -5.423254 -23.531671 3.176817 -122.071222 62.779036 97.169426 -8.987283 16.992345 10.928662 45.069320 -20.950601 19.866904 0.000000 0.000000 0.000000 0.000000 0.000000 0.000000 -104.357203 70.475275 90.791699 -32.631055 15.419474 -21.602314 12.032291 11.845462 1.276292 0.321320 -58.712101 -7.597953 0.000000 0.000000 0.000000 0.000000 0.000000 0.000000 -14.073535 10.592263 -14.096715 -7.178301 0.565604 -1.233848 -20.202615 39.134217 23.054201 0.000000 0.000000 0.000000 8.301155 -0.184461 -15.199613 -2.754027 -11.682887 1.140935 12.975687 17.805486 -22.581465 0.000000 0.000000 0.000000
2.785781 78.291124 351.503509 7.955020 -1.438165 10.464080 0.003560 -0.226318 -10.134317 -0.152219 -0.065771 0.308639 -15.697585 25.019007 9.325943 0.000000 0.000000 0.000000 0.267114 -15.132721 5.081762 -83.244524 61.345693 49.254155 -48.689252 -10.807524 -16.041171 83.999718 18.879441 1.802024 0.000000 0.000000 0.000000 0.000000 0.000000 0.000000 -94.387135 47.977678 65.263269 -13.709759 3.100222 -9.908690 -2.186139 19.972059 -2.113654 14.533072 -58.197476 3.154983 0.000000 0.000000 0.000000 0.000000 0.000000 0.000000 -14.415855 7.442314 -9.701581 -8.631316 3.073368 -0.484135 -15.697798 37.658738 19.340930 0.000000 0.000000 0.000000 7.997966 0.389121 -10.501276 -2.210332 -11.706113 1.501383 12.490638 20.225045 -26.074404 0.000000 0.000000 0.000000
1.435611 77.840492 350.740505 9.094200 -0.993090 4.766657 -0.226199 -0.029892 -4.441858 -0.034353 -0.092835 0.354015 -12.130552 25.730278 7.805732 0.000000 0.000000 0.000000 -1.059770 -2.123596 2.465054 -49.005535 26.152293 8.412267 -71.731624 -51.079615 -51.165301 132.515892 51.019533 -80.344832 0.000000 0.000000 0.000000 0.000000 0.000000 0.000000 -87.158751 30.972047 46.751385 -3.217619 -1.338192 -4.091543 -10.775184 17.314993 -4.670184 24.283720 -40.686396 13.611893 0.000000 0.000000 0.000000 0.000000 0.000000 0.000000 -14.941066 3.734917 -4.534314 -9.143853 5.017928 0.183404 -10.965276 36.150770 15.526323 0.000000 0.000000 0.000000 6.972800 -0.342001 -4.828306 -0.838712 -11.004272 1.940771 17.349555 18.747996 -30.161754 0.000000 0.000000 0.000000
0.679245 77.807663 349.719160 10.917023 0.260212 1.808946 0.605795 -0.327799 -1.485836 -0.166623 0.146087 0.434304 -14.295476 25.953451 7.787217 0.000000 0.000000 0.000000 -6.154933 9.920832 -0.823098 -34.533041 -14.827136 -5.086229 3.284438 -54.425338 -5.171500 25.747160 81.050049 -18.363699 0.000000 0.000000 0.000000 0.000000 0.000000 0.000000 -83.122888 19.225157 33.619956 0.169511 -11.327715 -6.659773 -3.980173 5.485672 -8.420715 14.510587 -19.087238 18.346122 0.000000 0.000000 0.000000 0.000000 0.000000 0.000000 -16.220091 0.018344 -2.256194 -9.066072 6.781576 0.818038 -6.201464 36.655805 12.212602 0.000000 0.000000 0.000000 3.715452 -0.539823 -1.752257 2.941832 -12.238819 2.457158 15.644447 30.697007 -44.576934 0.000000 0.000000 0.000000
0.048253 78.379479 348.549586 13.052564 2.058176 2.568386 1.432030 -0.450970 -2.327119 0.026352 0.152350 0.568209 -16.247761 24.595012 6.946946 0.000000 0.000000 0.000000 -13.418124 19.522796 -3.950264 -17.916308 -47.279426 -4.489863 7.951855 -43.249007 -1.157416 -2.813955 62.953508 3.021800 0.000000 0.000000 0.000000 0.000000 0.000000 0.000000 -78.354778 8.299427 21.175811 5.907694 -11.759698 -4.854644 4.847759 -15.801613 -15.631850 -0.936934 8.082740 27.418050 0.000000 0.000000 0.000000 0.000000 0.000000 0.000000 -18.112729 -3.014692 -3.772709 -8.752304 8.349938 1.371401 -8.411093 27.777541 11.520317 0.000000 0.000000 0.000000 0.238654 -2.645606 -2.550180 6.175092 -12.298492 2.913049 12.189374 38.545917 -50.626899 0.000000 0.000000 0.000000
-0.081896 76.933720 347.392048 15.297891 1.326630 1.327503 1.666435 -0.463346 -0.954590 0.063098 0.273485 0.647098 -15.880726 23.437814 5.311864 0.000000 0.000000 0.000000 -22.382576 23.341783 -5.365698 12.920791 -61.810011 14.383263 3.672674 -29.963312 0.236873 6.669232 44.841243 -7.989267 0.000000 0.000000 0.000000 0.000000 0.000000 0.000000 -71.848591 1.429167 14.065505 7.063260 -9.687826 -3.048824 8.074980 -16.916814 -13.784413 -0.722825 12.697080 23.125970 0.000000 0.000000 0.000000 0.000000 0.000000 0.000000 -19.652326 -4.146128 -2.575489 -9.140244 9.424207 1.707992 -3.871280 24.586179 8.749656 0.000000 0.000000 0.000000 -2.180323 -2.085449 -1.384062 7.286569 -11.914541 3.086485 13.818387 43.499619 -58.572731 0.000000 0.000000 0.000000
-0.023481 75.148364 346.407099 17.700710 1.431317 -0.768171 1.681311 -0.479146 1.186364 0.126791 0.417309 0.719736 -18.339097 22.410305 4.857124 0.000000 0.000000 0.000000 -26.747266 24.285739 -5.920143 37.377452 -64.813986 32.685896 -1.150747 -22.178526 2.105291 7.544486 33.163230 -7.879766 0.000000 0.000000 0.000000 0.000000 0.000000 0.000000 -61.660126 -3.352078 7.837382 2.155118 -5.574140 0.194408 7.379202 -15.303756 -11.551559 25.526894 11.729017 -4.530525 0.000000 0.000000 0.000000 0.000000 0.000000 0.000000 -21.535304 -6.671980 -0.926317 -9.242112 10.952109 2.212371 -2.047175 23.886267 7.604402 0.000000 0.000000 0.000000 -4.323460 -2.502246 0.641016 7.729679 -11.634162 3.205105 15.707036 45.301220 -63.404925 0.000000 0.000000 0.000000
0.205206 72.980209 345.710495 19.747095 1.279870 -2.176174 1.620575 -0.484914 2.663287 0.415989 0.503429 0.796359 -22.646522 22.388742 5.353249 0.000000 0.000000 0.000000 -29.228516 20.934139 -5.750248 44.759093 -61.651419 36.291214 -3.497845 -18.313298 2.963540 4.583800 31.422002 -5.389347 0.000000 0.000000 0.000000 0.000000 0.000000 0.000000 -54.337822 -7.891877 3.867841 -2.807410 0.706011 4.070283 2.369376 -12.229290 -9.328768 56.427554 15.518139 -35.693843 0.000000 0.000000 0.000000 0.000000 0.000000 0.000000 -23.366712 -8.449356 0.167521 -9.187711 12.107724 2.598960 -0.930630 29.234954 7.476138 0.000000 0.000000 0.000000 -5.107291 -2.782663 2.037430 6.592613 -10.853811 3.179074 18.098774 44.078506 -65.824720 0.000000 0.000000 0.000000
